HIERARCHY
ROOT Hips
{
	OFFSET 0.000000 0.000000 0.000000
	CHANNELS 6 Xposition Yposition Zposition Xrotation Yrotation Zrotation
	JOINT LeftUpLeg_virtual
	{
		OFFSET 0.000000 0.000000 0.000000
		CHANNELS 3 Xrotation Yrotation Zrotation
		JOINT LeftUpLeg
		{
			OFFSET 15.427100 -6.655098 0.678600
			CHANNELS 3 Xrotation Yrotation Zrotation
			JOINT LeftLeg
			{
				OFFSET 4.081073 -39.591068 13.024000
				CHANNELS 3 Xrotation Yrotation Zrotation
				JOINT LeftFoot
				{
					OFFSET -4.081074 -37.707932 -15.979700
					CHANNELS 3 Xrotation Yrotation Zrotation
					JOINT LeftToeBase
					{
						OFFSET 5.346399 -15.068900 20.645000
						CHANNELS 3 Xrotation Yrotation Zrotation
						JOINT LeftToe_End
						{
							OFFSET 2.754700 0.931300 11.300900
							CHANNELS 3 Xrotation Yrotation Zrotation
							End Site
							{
								OFFSET 0 0 0
							}
						}
					}
				}
			}
		}
	}
	JOINT RightUpLeg_virtual
	{
		OFFSET 0.000000 0.000000 0.000000
		CHANNELS 3 Xrotation Yrotation Zrotation
		JOINT RightUpLeg
		{
			OFFSET -15.569500 -6.655098 0.678600
			CHANNELS 3 Xrotation Yrotation Zrotation
			JOINT RightLeg
			{
				OFFSET -4.081825 -39.591045 13.023800
				CHANNELS 3 Xrotation Yrotation Zrotation
				JOINT RightFoot
				{
					OFFSET 4.081824 -37.707954 -15.979600
					CHANNELS 3 Xrotation Yrotation Zrotation
					JOINT RightToeBase
					{
						OFFSET -5.346400 -15.068900 20.645000
						CHANNELS 3 Xrotation Yrotation Zrotation
						JOINT RightToe_End
						{
							OFFSET -2.754700 0.931300 11.300900
							CHANNELS 3 Xrotation Yrotation Zrotation
							End Site
							{
								OFFSET 0 0 0
							}
						}
					}
				}
			}
		}
	}
	JOINT Spine_virtual
	{
		OFFSET 0.000000 0.000000 0.000000
		CHANNELS 3 Xrotation Yrotation Zrotation
		JOINT Spine
		{
			OFFSET -0.279200 12.230698 -2.892100
			CHANNELS 3 Xrotation Yrotation Zrotation
			JOINT Spine1
			{
				OFFSET -0.232667 10.192268 -1.242267
				CHANNELS 3 Xrotation Yrotation Zrotation
				JOINT Spine1_split
				{
					OFFSET -0.232667 10.192268 -1.242267
					CHANNELS 3 Xrotation Yrotation Zrotation
					JOINT Spine2
					{
						OFFSET -0.232667 10.192268 -1.242267
						CHANNELS 3 Xrotation Yrotation Zrotation
						JOINT Neck_virtual
						{
							OFFSET 0.000000 0.000000 0.000000
							CHANNELS 3 Xrotation Yrotation Zrotation
							JOINT Neck
							{
								OFFSET -0.418800 17.814194 8.416900
								CHANNELS 3 Xrotation Yrotation Zrotation
								JOINT Head
								{
									OFFSET 0.000000 7.031097 3.806800
									CHANNELS 3 Xrotation Yrotation Zrotation
									JOINT HeadTop_End
									{
										OFFSET 0.000000 24.646606 12.978600
										CHANNELS 3 Xrotation Yrotation Zrotation
										End Site
										{
											OFFSET 0 0 0
										}
									}
								}
							}
						}
						JOINT LeftShoulder_virtual
						{
							OFFSET 0.000000 0.000000 0.000000
							CHANNELS 3 Xrotation Yrotation Zrotation
							JOINT LeftShoulder
							{
								OFFSET 8.476499 7.247704 -3.868750
								CHANNELS 3 Xrotation Yrotation Zrotation
								JOINT LeftShoulder_split
								{
									OFFSET 8.476499 7.247704 -3.868750
									CHANNELS 3 Xrotation Yrotation Zrotation
									JOINT LeftArm
									{
										OFFSET 9.308998 -2.777710 0.208600
										CHANNELS 3 Xrotation Yrotation Zrotation
										JOINT LeftForeArm
										{
											OFFSET 29.972298 0.000000 0.000000
											CHANNELS 3 Xrotation Yrotation Zrotation
											JOINT LeftHand
											{
												OFFSET 26.026505 0.000000 0.000000
												CHANNELS 3 Xrotation Yrotation Zrotation
												End Site
												{
													OFFSET 0 0 0
												}
											}
										}
									}
								}
							}
						}
						JOINT RightShoulder_virtual
						{
							OFFSET 0.000000 0.000000 0.000000
							CHANNELS 3 Xrotation Yrotation Zrotation
							JOINT RightShoulder
							{
								OFFSET -7.570500 7.247704 -3.868750
								CHANNELS 3 Xrotation Yrotation Zrotation
								JOINT RightShoulder_split
								{
									OFFSET -7.570500 7.247704 -3.868750
									CHANNELS 3 Xrotation Yrotation Zrotation
									JOINT RightArm
									{
										OFFSET -9.308998 -2.777710 0.208500
										CHANNELS 3 Xrotation Yrotation Zrotation
										JOINT RightForeArm
										{
											OFFSET -29.972300 0.000000 0.000000
											CHANNELS 3 Xrotation Yrotation Zrotation
											JOINT RightHand
											{
												OFFSET -26.026505 0.000000 0.000000
												CHANNELS 3 Xrotation Yrotation Zrotation
												End Site
												{
													OFFSET 0 0 0
												}
											}
										}
									}
								}
							}
						}
					}
				}
			}
		}
	}
}
MOTION
Frames: 6
Frame Time: 0.03333333
-2.809345 78.160896 -5.138248 0.000000 0.000000 0.000000 26.637987 -45.169851 9.701917 -77.136256 -1.963062 11.338970 54.202472 -3.187759 -2.888431 13.519080 -0.782841 -5.911888 -5.478659 1.123537 2.181865 0.000000 0.000000 0.000000 24.534540 -46.666772 8.856425 -27.611948 -14.693779 -23.011177 47.131133 -10.885688 9.625360 -18.077986 -11.839114 24.428211 -1.200371 0.547910 4.197692 0.000000 0.000000 0.000000 29.161103 -46.949645 11.310261 0.266133 7.696090 -1.403611 -1.791727 2.361702 0.445219 0.837763 -0.933057 0.346311 0.000000 0.000000 0.000000 0.309922 0.086534 1.218102 10.756377 6.221859 -7.414234 -2.758050 19.678617 11.366166 0.000000 0.000000 0.000000 -2.551107 1.041919 0.916227 3.295639 2.839338 -9.394479 1.094565 4.446614 1.556300 -51.777861 -30.988203 -46.629961 0.853532 -70.159491 1.994222 0.000000 0.000000 0.000000 -2.300781 0.065519 0.877299 -12.759782 -1.688150 -2.890451 -8.352194 -1.082956 -1.809905 -106.770535 37.353007 125.862396 -4.575793 24.497648 2.370059 0.000000 0.000000 0.000000 
-2.163626 78.706520 -8.722378 0.000000 0.000000 0.000000 26.856808 -43.843947 8.729499 -75.020995 -2.032179 9.994350 56.065526 -3.289463 -2.472913 9.913324 -1.149938 -5.538270 -6.054951 0.501758 3.539331 0.000000 0.000000 0.000000 24.940280 -46.516249 8.481917 -27.750910 -16.782999 -20.692227 45.505442 -10.252090 9.421827 -19.266454 -11.156040 24.541519 0.646480 1.159708 3.173532 0.000000 0.000000 0.000000 30.631646 -47.135825 11.693497 0.034963 7.920517 -1.112728 -1.800384 2.510510 0.393564 1.621607 -0.738535 0.501229 0.000000 0.000000 0.000000 0.373784 0.194803 1.200946 10.813349 5.955386 -7.172899 -2.624100 19.685500 11.259763 0.000000 0.000000 0.000000 -2.347136 1.123270 0.848273 3.193592 2.479782 -9.617213 1.511351 4.684631 1.157193 -51.341344 -31.132740 -46.415537 0.909970 -69.651517 1.995256 0.000000 0.000000 0.000000 -2.081667 0.275735 0.940095 -12.781877 -1.747089 -2.584184 -8.623030 -0.800893 -1.743996 -107.036052 37.914045 126.172910 -4.307301 23.230995 2.320288 0.000000 0.000000 0.000000 
-1.265079 79.236641 -13.847092 0.000000 0.000000 0.000000 27.273092 -44.270366 8.182324 -71.796954 -1.482071 7.927870 57.866435 -4.144102 -1.376939 5.648430 -2.979808 -5.735241 -7.440373 -0.144142 4.709875 0.000000 0.000000 0.000000 25.784741 -48.016950 8.701379 -29.668463 -19.402107 -18.429669 44.372652 -9.162583 9.564509 -18.316961 -9.441214 25.334244 -1.893734 1.593564 1.454690 0.000000 0.000000 0.000000 32.473677 -48.354249 12.445913 0.008439 8.512041 -0.610881 -1.761565 2.998724 0.401929 1.952273 -0.607523 0.642972 0.000000 0.000000 0.000000 0.458937 0.612979 1.183400 10.749763 5.504849 -6.682146 -2.341975 19.043172 11.351702 0.000000 0.000000 0.000000 -2.203219 1.527853 0.817584 3.019738 1.809510 -9.933302 1.675661 4.567156 0.981966 -51.138828 -31.500204 -46.163766 0.565643 -69.874673 1.656746 0.000000 0.000000 0.000000 -1.754257 0.812720 1.036880 -12.939120 -2.014353 -1.901217 -8.809203 -0.690612 -1.993486 -107.207339 38.397070 126.190040 -3.908469 22.136196 2.076732 0.000000 0.000000 0.000000 
-0.544074 79.390297 -19.649864 0.000000 0.000000 0.000000 28.139259 -46.571645 8.520887 -68.335414 -0.567707 6.094381 58.777029 -5.473212 -0.302714 1.524928 -5.696829 -5.501904 -10.534162 -0.869898 6.146291 0.000000 0.000000 0.000000 26.899892 -51.007600 9.561988 -32.387429 -21.676681 -17.078113 44.522284 -7.840880 9.973337 -16.466254 -7.743523 25.895771 -6.426864 1.918005 -0.320078 0.000000 0.000000 0.000000 34.268753 -50.377508 13.490722 0.163439 9.359372 -0.013843 -1.726468 3.689220 0.463417 1.468028 -0.409133 0.708789 0.000000 0.000000 0.000000 0.525735 1.226041 1.184783 10.508083 5.002466 -6.044985 -2.041158 18.029478 11.548921 0.000000 0.000000 0.000000 -2.123913 2.123891 0.833041 2.822222 1.026639 -10.246698 1.728397 4.281278 0.924664 -51.180680 -31.978372 -45.762346 -0.178229 -70.643281 0.959173 0.000000 0.000000 0.000000 -1.404439 1.541302 1.171967 -13.174953 -2.413586 -1.115423 -8.976722 -0.790949 -2.292620 -107.205891 38.599390 125.919237 -3.502127 21.608955 1.732053 0.000000 0.000000 0.000000 
-0.243051 78.906364 -25.375259 0.000000 0.000000 0.000000 29.374366 -50.016376 9.707026 -65.277218 0.494054 5.119526 59.147341 -6.387529 0.226469 -2.157432 -8.008699 -3.403419 -13.174515 -1.378343 6.916123 0.000000 0.000000 0.000000 28.241652 -54.614848 10.877009 -33.562433 -22.556362 -16.845439 45.749246 -7.280348 10.149484 -15.059978 -7.833297 24.560691 -8.736358 2.032948 -1.583465 0.000000 0.000000 0.000000 35.219621 -52.609785 14.241170 0.516637 10.308857 0.497055 -1.719988 4.389071 0.580985 0.941655 -0.134218 0.761241 0.000000 0.000000 0.000000 0.531063 1.836819 1.224978 10.166982 4.526105 -5.395803 -1.816393 17.036155 11.717674 0.000000 0.000000 0.000000 -2.089701 2.704641 0.885009 2.671265 0.389354 -10.644180 1.678206 4.138424 0.973765 -51.384831 -32.427471 -45.220326 -1.232912 -71.482765 -0.037399 0.000000 0.000000 0.000000 -1.136484 2.269272 1.340773 -13.393645 -2.848642 -0.481352 -8.785381 -0.933932 -2.516583 -106.970427 38.359551 125.403585 -3.210557 21.835012 1.423138 0.000000 0.000000 0.000000 
-0.343031 77.736443 -31.213997 0.000000 0.000000 0.000000 30.620691 -53.606002 11.378953 -63.990868 1.291974 5.679818 59.699282 -6.377400 -0.190269 -5.444953 -9.045313 0.688963 -11.764016 -1.040592 5.836383 0.000000 0.000000 0.000000 29.445646 -57.937435 12.371010 -31.634373 -21.144210 -18.032710 47.329967 -7.467504 9.623899 -14.013241 -10.433461 21.858463 -7.570608 1.866245 -2.098419 0.000000 0.000000 0.000000 35.369066 -54.726276 14.633861 0.975036 11.172000 0.831774 -1.789438 4.885940 0.731153 0.942631 0.130880 0.469682 0.000000 0.000000 0.000000 0.443649 2.286528 1.300213 9.827169 4.134228 -4.845778 -1.604230 16.344465 11.753607 0.000000 0.000000 0.000000 -2.105313 3.098762 0.941554 2.593524 -0.001028 -11.082811 1.682005 4.088707 1.152551 -51.700642 -32.764001 -44.718345 -2.350505 -71.923265 -1.109612 0.000000 0.000000 0.000000 -0.999053 2.822521 1.534775 -13.528421 -3.162280 -0.197887 -8.258498 -1.000200 -2.652962 -106.538199 37.683923 124.735073 -3.101869 22.626274 1.273924 0.000000 0.000000 0.000000 
